<svg width="60" height="60" viewBox="0 0 60 60" fill="none" xmlns="http://www.w3.org/2000/svg">
<path d="M39.8274 7.46729C38.507 7.46729 37.2407 7.99179 36.3071 8.92542C35.3735 9.85905 34.849 11.1253 34.849 12.4457V27.3809C34.849 28.7012 35.3735 29.9675 36.3071 30.9011C37.2407 31.8347 38.507 32.3592 39.8274 32.3592C40.4875 32.3592 41.1207 32.6215 41.5875 33.0883C42.0543 33.5551 42.3166 34.1883 42.3166 34.8484V37.3376C42.3166 38.658 41.7921 39.9243 40.8584 40.8579C39.9248 41.7915 38.6585 42.316 37.3382 42.316C36.678 42.316 36.0449 42.5783 35.578 43.0451C35.1112 43.5119 34.849 44.1451 34.849 44.8052V49.7836C34.849 50.4438 35.1112 51.0769 35.578 51.5437C36.0449 52.0106 36.678 52.2728 37.3382 52.2728C41.2992 52.2728 45.0981 50.6993 47.8989 47.8984C50.6998 45.0975 52.2734 41.2987 52.2734 37.3376V12.4457C52.2734 11.1253 51.7488 9.85905 50.8152 8.92542C49.8816 7.99179 48.6153 7.46729 47.295 7.46729H39.8274Z" stroke="white" stroke-width="4.97839" stroke-linecap="round" stroke-linejoin="round"/>
<path d="M12.4462 7.46729C11.1259 7.46729 9.85959 7.99179 8.92596 8.92542C7.99233 9.85905 7.46782 11.1253 7.46782 12.4457V27.3809C7.46782 28.7012 7.99233 29.9675 8.92596 30.9011C9.85959 31.8347 11.1259 32.3592 12.4462 32.3592C13.1064 32.3592 13.7395 32.6215 14.2063 33.0883C14.6732 33.5551 14.9354 34.1883 14.9354 34.8484V37.3376C14.9354 38.658 14.4109 39.9243 13.4773 40.8579C12.5436 41.7915 11.2774 42.316 9.95702 42.316C9.29684 42.316 8.6637 42.5783 8.19689 43.0451C7.73007 43.5119 7.46782 44.1451 7.46782 44.8052V49.7836C7.46782 50.4438 7.73007 51.0769 8.19689 51.5437C8.6637 52.0106 9.29684 52.2728 9.95702 52.2728C13.9181 52.2728 17.7169 50.6993 20.5178 47.8984C23.3187 45.0975 24.8922 41.2987 24.8922 37.3376V12.4457C24.8922 11.1253 24.3677 9.85905 23.4341 8.92542C22.5004 7.99179 21.2342 7.46729 19.9138 7.46729H12.4462Z" stroke="white" stroke-width="4.97839" stroke-linecap="round" stroke-linejoin="round"/>
</svg>

